<?xml version="1.0" encoding="UTF-8" standalone="no"?>
<!DOCTYPE svg PUBLIC "-//W3C//DTD SVG 1.1//EN" "http://www.w3.org/Graphics/SVG/1.1/DTD/svg11.dtd">
<svg version="1.1" xmlns="http://www.w3.org/2000/svg" xmlns:xlink="http://www.w3.org/1999/xlink" preserveAspectRatio="xMidYMid meet" viewBox="122.35249533155138 249.5591397849463 415.6559139784947 186.85552829751128" width="411.66" height="182.86"><defs><path d="M535.01 372.73C535.01 406.22 442.78 433.41 329.18 433.41C215.58 433.41 123.35 406.22 123.35 372.73C123.35 339.23 215.58 312.04 329.18 312.04C442.78 312.04 535.01 339.23 535.01 372.73Z" id="bhh3bEczp"></path><linearGradient id="gradientbTPSu3rO0" gradientUnits="userSpaceOnUse" x1="264.11" y1="319.35" x2="329.18" y2="433.41"><stop style="stop-color: #d8a7e7;stop-opacity: 1" offset="0%"></stop><stop style="stop-color: #852d98;stop-opacity: 1" offset="100%"></stop></linearGradient><clipPath id="clipgR6rLlzMB"><use xlink:href="#bhh3bEczp" opacity="1"></use></clipPath><path d="M420.17 364.97C420.17 377.28 380.86 387.27 332.43 387.27C284 387.27 244.69 377.28 244.69 364.97C244.69 352.66 284 342.67 332.43 342.67C380.86 342.67 420.17 352.66 420.17 364.97Z" id="a1ifwrSLSp"></path><linearGradient id="gradientd2Tv4Z5Air" gradientUnits="userSpaceOnUse" x1="332.43" y1="342.67" x2="332.43" y2="387.27"><stop style="stop-color: #e995f6;stop-opacity: 1" offset="0%"></stop><stop style="stop-color: #8c488a;stop-opacity: 1" offset="100%"></stop></linearGradient><path d="M377.03 300.28C377.03 327.72 351.48 350 320 350C288.52 350 262.97 327.72 262.97 300.28C262.97 272.84 288.52 250.56 320 250.56C351.48 250.56 377.03 272.84 377.03 300.28Z" id="aKK9dLMUV"></path><radialGradient id="gradienta7V5a0wc" gradientUnits="userSpaceOnUse" cx="303.23" cy="280.53" dx="303.23" dy="379.97" r="99.44"><stop style="stop-color: #d4d4c0;stop-opacity: 1" offset="0%"></stop><stop style="stop-color: #5f605b;stop-opacity: 0.89" offset="100%"></stop></radialGradient><clipPath id="clipaXUdiEkK0"><use xlink:href="#aKK9dLMUV" opacity="1"></use></clipPath><path d="M291.48 342.67C291.48 372.13 263.64 396.04 229.33 396.04C195.03 396.04 167.18 372.13 167.18 342.67C167.18 313.21 195.03 289.29 229.33 289.29C263.64 289.29 291.48 313.21 291.48 342.67Z" id="a78lrYmgjP"></path><radialGradient id="gradientg6jQ2ReBI" gradientUnits="userSpaceOnUse" cx="211.05" cy="321.46" dx="211.05" dy="428.22" r="106.75"><stop style="stop-color: #d4d4c0;stop-opacity: 1" offset="0%"></stop><stop style="stop-color: #5f605b;stop-opacity: 0.89" offset="100%"></stop></radialGradient><path d="M473.81 333.89C473.81 363.35 445.96 387.27 411.66 387.27C377.35 387.27 349.51 363.35 349.51 333.89C349.51 304.43 377.35 280.52 411.66 280.52C445.96 280.52 473.81 304.43 473.81 333.89Z" id="bh6Lwljo0"></path><radialGradient id="gradientc6UXgziO1" gradientUnits="userSpaceOnUse" cx="393.38" cy="312.69" dx="393.38" dy="419.44" r="106.75"><stop style="stop-color: #d4d4c0;stop-opacity: 1" offset="0%"></stop><stop style="stop-color: #5f605b;stop-opacity: 0.89" offset="100%"></stop></radialGradient><path d="M382.15 353.66C382.15 383.12 354.3 407.03 320 407.03C285.7 407.03 257.85 383.12 257.85 353.66C257.85 324.2 285.7 300.28 320 300.28C354.3 300.28 382.15 324.2 382.15 353.66Z" id="b1cD87aEIB"></path><radialGradient id="gradientd1GC15Y7TI" gradientUnits="userSpaceOnUse" cx="301.72" cy="332.45" dx="301.72" dy="439.2" r="106.75"><stop style="stop-color: #d4d4c0;stop-opacity: 1" offset="0%"></stop><stop style="stop-color: #5f605b;stop-opacity: 0.89" offset="100%"></stop></radialGradient></defs><g><g><use xlink:href="#bhh3bEczp" opacity="1" fill="url(#gradientbTPSu3rO0)"></use><g clip-path="url(#clipgR6rLlzMB)"><use xlink:href="#bhh3bEczp" opacity="1" fill-opacity="0" stroke="#350a3e" stroke-width="14" stroke-opacity="1"></use></g></g><g><use xlink:href="#a1ifwrSLSp" opacity="1" fill="url(#gradientd2Tv4Z5Air)"></use></g><g><use xlink:href="#aKK9dLMUV" opacity="1" fill="url(#gradienta7V5a0wc)"></use><g clip-path="url(#clipaXUdiEkK0)"><use xlink:href="#aKK9dLMUV" opacity="1" fill-opacity="0" stroke="#3b371f" stroke-width="8" stroke-opacity="1"></use></g></g><g><use xlink:href="#a78lrYmgjP" opacity="1" fill="url(#gradientg6jQ2ReBI)"></use><g><use xlink:href="#a78lrYmgjP" opacity="1" fill-opacity="0" stroke="#3b371f" stroke-width="4" stroke-opacity="1"></use></g></g><g><use xlink:href="#bh6Lwljo0" opacity="1" fill="url(#gradientc6UXgziO1)"></use><g><use xlink:href="#bh6Lwljo0" opacity="1" fill-opacity="0" stroke="#3b371f" stroke-width="4" stroke-opacity="1"></use></g></g><g><use xlink:href="#b1cD87aEIB" opacity="1" fill="url(#gradientd1GC15Y7TI)"></use><g><use xlink:href="#b1cD87aEIB" opacity="1" fill-opacity="0" stroke="#3b371f" stroke-width="4" stroke-opacity="1"></use></g></g></g></svg>