<?xml version="1.0" encoding="UTF-8" standalone="no"?>
<!DOCTYPE svg PUBLIC "-//W3C//DTD SVG 1.1//EN" "http://www.w3.org/Graphics/SVG/1.1/DTD/svg11.dtd">
<svg version="1.1" xmlns="http://www.w3.org/2000/svg" xmlns:xlink="http://www.w3.org/1999/xlink" preserveAspectRatio="xMidYMid meet" viewBox="157.27941176470532 162.0005638438084 344.30034863882497 224.46097461773022" width="340.3" height="218.46"><defs><path d="M464.95 239.62C470.29 239.62 474.62 243.94 474.62 249.28C474.62 275.35 474.62 343.88 474.62 369.95C474.62 375.29 470.29 379.62 464.95 379.62C409.35 379.62 252.19 379.62 196.59 379.62C191.25 379.62 186.92 375.29 186.92 369.95C186.92 343.88 186.92 275.35 186.92 249.28C186.92 243.94 191.25 239.62 196.59 239.62C252.19 239.62 409.35 239.62 464.95 239.62Z" id="bvwysm8ih"></path><clipPath id="clipcpF1EcSPZ"><use xlink:href="#bvwysm8ih" opacity="1"></use></clipPath><path d="M159.23 248.38C164.81 264.92 154.81 279.15 203.08 273C251.35 266.84 250.38 254.92 316.15 256.07C381.92 257.23 433.08 266.84 458.46 269.15C475.38 270.69 488.72 258.89 498.46 233.77C500.38 218 478.85 203.38 433.85 189.92C366.35 169.73 363.85 162.8 288.46 172.23C238.21 178.51 202.31 190.05 180.77 206.84C162.69 223.51 155.51 237.36 159.23 248.38Z" id="b1S8kjFgz"></path><clipPath id="clipa1g3MrJz4Q"><use xlink:href="#b1S8kjFgz" opacity="1"></use></clipPath><path d="M349.79 165.29L352.76 165.51L355.67 165.78L358.52 166.12L361.33 166.51L364.11 166.95L366.88 167.46L369.64 168.02L372.42 168.64L375.22 169.32L378.06 170.05L380.95 170.83L381.54 171L381.54 383.46L289.23 383.46L289.23 169.19L293.98 168.59L299.24 167.95L304.25 167.38L309.03 166.87L313.58 166.42L317.93 166.04L322.08 165.71L326.05 165.45L329.85 165.25L333.49 165.1L336.99 165.02L340.35 165L343.6 165.04L346.74 165.14L346.74 165.14L349.79 165.29Z" id="a3ZliQQwsG"></path></defs><g><g><use xlink:href="#bvwysm8ih" opacity="1" fill="#fefce3" fill-opacity="1"></use><g clip-path="url(#clipcpF1EcSPZ)"><use xlink:href="#bvwysm8ih" opacity="1" fill-opacity="0" stroke="#878787" stroke-width="14" stroke-opacity="1"></use></g></g><g><use xlink:href="#b1S8kjFgz" opacity="1" fill="#f9708e" fill-opacity="1"></use><g clip-path="url(#clipa1g3MrJz4Q)"><use xlink:href="#b1S8kjFgz" opacity="1" fill-opacity="0" stroke="#6e6e67" stroke-width="12" stroke-opacity="1"></use></g></g><g><use xlink:href="#a3ZliQQwsG" opacity="1" fill="#0f6505" fill-opacity="1"></use></g></g></svg>