<?xml version="1.0" encoding="UTF-8" standalone="no"?>
<!DOCTYPE svg PUBLIC "-//W3C//DTD SVG 1.1//EN" "http://www.w3.org/Graphics/SVG/1.1/DTD/svg11.dtd">
<svg version="1.1" xmlns="http://www.w3.org/2000/svg" xmlns:xlink="http://www.w3.org/1999/xlink" preserveAspectRatio="xMidYMid meet" viewBox="112.8969072164949 144.09278350515464 400.3882775396735 194.4443414803661" width="396.39" height="190.44"><defs><path d="M236.53 264.48L236.37 265.38L236.12 266.27L235.77 267.15L235.33 268.02L234.79 268.87L234.17 269.71L233.45 270.54L232.64 271.36L231.75 272.16L230.78 272.94L229.73 273.71L228.59 274.46L227.38 275.2L226.1 275.91L224.74 276.61L223.3 277.28L221.8 277.93L220.24 278.57L218.6 279.18L216.91 279.77L215.15 280.33L213.33 280.87L211.45 281.39L209.52 281.88L207.54 282.34L205.5 282.78L203.42 283.18L201.28 283.56L199.1 283.91L196.88 284.23L194.62 284.52L192.31 284.78L189.97 285.01L187.59 285.2L185.18 285.36L182.74 285.49L180.26 285.58L177.76 285.63L175.24 285.65L172.71 285.63L170.21 285.58L167.74 285.49L165.29 285.36L162.88 285.2L160.5 285.01L158.16 284.78L155.86 284.52L153.59 284.23L151.37 283.91L149.19 283.56L147.06 283.18L144.97 282.78L142.94 282.34L140.95 281.88L139.02 281.39L137.14 280.87L135.33 280.33L133.57 279.77L131.87 279.18L130.24 278.57L128.67 277.93L127.17 277.28L125.74 276.61L124.38 275.91L123.09 275.2L121.88 274.46L120.75 273.71L119.69 272.94L118.72 272.16L117.83 271.36L117.03 270.54L116.31 269.71L115.68 268.87L115.14 268.02L114.7 267.15L114.35 266.27L114.1 265.38L113.95 264.48L113.92 263.92L113.9 263.92L113.9 167.18L236.58 167.18L236.58 263.92L236.56 263.92L236.53 264.48Z" id="fcXXAlb2J"></path><linearGradient id="gradienta1Pd1NU32p" gradientUnits="userSpaceOnUse" x1="236.58" y1="236.58" x2="113.9" y2="234.47"><stop style="stop-color: #8a8a8a;stop-opacity: 1" offset="0%"></stop><stop style="stop-color: #010000;stop-opacity: 1" offset="100%"></stop></linearGradient><clipPath id="clipfB8kmZZrx"><use xlink:href="#fcXXAlb2J" opacity="1"></use></clipPath><path d="M236.58 167.18C236.58 179.36 209.09 189.26 175.24 189.26C141.38 189.26 113.9 179.36 113.9 167.18C113.9 154.99 141.38 145.09 175.24 145.09C209.09 145.09 236.58 154.99 236.58 167.18Z" id="astivK7l0"></path><clipPath id="clipbqMrixnv1"><use xlink:href="#astivK7l0" opacity="1"></use></clipPath><path d="M196.74 167.18C196.74 171.45 187.1 174.92 175.24 174.92C163.37 174.92 153.74 171.45 153.74 167.18C153.74 162.9 163.37 159.44 175.24 159.44C187.1 159.44 196.74 162.9 196.74 167.18Z" id="a19Zs7UJtZ"></path><path d="M373.38 264.48L373.23 265.38L372.98 266.27L372.63 267.15L372.18 268.02L371.65 268.87L371.02 269.71L370.3 270.54L369.5 271.36L368.61 272.16L367.63 272.94L366.58 273.71L365.45 274.46L364.24 275.2L362.95 275.91L361.59 276.61L360.16 277.28L358.66 277.93L357.09 278.57L355.46 279.18L353.76 279.77L352 280.33L350.18 280.87L348.31 281.39L346.38 281.88L344.39 282.34L342.36 282.78L340.27 283.18L338.14 283.56L335.96 283.91L333.74 284.23L331.47 284.52L329.17 284.78L326.82 285.01L324.45 285.2L322.04 285.36L319.59 285.49L317.12 285.58L314.62 285.63L312.09 285.65L309.56 285.63L307.06 285.58L304.59 285.49L302.15 285.36L299.74 285.2L297.36 285.01L295.02 284.78L292.71 284.52L290.45 284.23L288.22 283.91L286.05 283.56L283.91 283.18L281.83 282.78L279.79 282.34L277.81 281.88L275.87 281.39L274 280.87L272.18 280.33L270.42 279.77L268.73 279.18L267.09 278.57L265.52 277.93L264.02 277.28L262.59 276.61L261.23 275.91L259.95 275.2L258.74 274.46L257.6 273.71L256.55 272.94L255.57 272.16L254.68 271.36L253.88 270.54L253.16 269.71L252.53 268.87L252 268.02L251.55 267.15L251.21 266.27L250.95 265.38L250.8 264.48L250.77 263.92L250.75 263.92L250.75 167.18L373.43 167.18L373.43 263.92L373.41 263.92L373.38 264.48Z" id="avTCyUIHa"></path><linearGradient id="gradienta2NgyAbYr" gradientUnits="userSpaceOnUse" x1="373.43" y1="236.58" x2="250.75" y2="234.47"><stop style="stop-color: #8a8a8a;stop-opacity: 1" offset="0%"></stop><stop style="stop-color: #010000;stop-opacity: 1" offset="100%"></stop></linearGradient><clipPath id="clipd4skr3USW2"><use xlink:href="#avTCyUIHa" opacity="1"></use></clipPath><path d="M373.43 167.18C373.43 179.36 345.95 189.26 312.09 189.26C278.24 189.26 250.75 179.36 250.75 167.18C250.75 154.99 278.24 145.09 312.09 145.09C345.95 145.09 373.43 154.99 373.43 167.18Z" id="e1kRdh3zCV"></path><clipPath id="clipc8BkXrtxh"><use xlink:href="#e1kRdh3zCV" opacity="1"></use></clipPath><path d="M333.59 167.18C333.59 171.45 323.96 174.92 312.09 174.92C300.22 174.92 290.59 171.45 290.59 167.18C290.59 162.9 300.22 159.44 312.09 159.44C323.96 159.44 333.59 162.9 333.59 167.18Z" id="e15Uq2w29"></path><path d="M510.23 264.48L510.08 265.38L509.83 266.27L509.48 267.15L509.04 268.02L508.5 268.87L507.87 269.71L507.16 270.54L506.35 271.36L505.46 272.16L504.49 272.94L503.43 273.71L502.3 274.46L501.09 275.2L499.8 275.91L498.44 276.61L497.01 277.28L495.51 277.93L493.94 278.57L492.31 279.18L490.61 279.77L488.86 280.33L487.04 280.87L485.16 281.39L483.23 281.88L481.25 282.34L479.21 282.78L477.12 283.18L474.99 283.56L472.81 283.91L470.59 284.23L468.32 284.52L466.02 284.78L463.68 285.01L461.3 285.2L458.89 285.36L456.45 285.49L453.97 285.58L451.47 285.63L448.94 285.65L446.42 285.63L443.92 285.58L441.44 285.49L439 285.36L436.59 285.2L434.21 285.01L431.87 284.78L429.57 284.52L427.3 284.23L425.08 283.91L422.9 283.56L420.77 283.18L418.68 282.78L416.64 282.34L414.66 281.88L412.73 281.39L410.85 280.87L409.03 280.33L407.28 279.77L405.58 279.18L403.95 278.57L402.38 277.93L400.88 277.28L399.45 276.61L398.09 275.91L396.8 275.2L395.59 274.46L394.46 273.71L393.4 272.94L392.43 272.16L391.54 271.36L390.73 270.54L390.02 269.71L389.39 268.87L388.85 268.02L388.41 267.15L388.06 266.27L387.81 265.38L387.66 264.48L387.62 263.92L387.6 263.92L387.6 167.18L510.29 167.18L510.29 263.92L510.26 263.92L510.23 264.48Z" id="a7piuseeLm"></path><linearGradient id="gradienta1ider2gyX" gradientUnits="userSpaceOnUse" x1="510.29" y1="236.58" x2="387.6" y2="234.47"><stop style="stop-color: #8a8a8a;stop-opacity: 1" offset="0%"></stop><stop style="stop-color: #010000;stop-opacity: 1" offset="100%"></stop></linearGradient><clipPath id="clipeliFTdFNs"><use xlink:href="#a7piuseeLm" opacity="1"></use></clipPath><path d="M510.29 167.18C510.29 179.36 482.8 189.26 448.94 189.26C415.09 189.26 387.6 179.36 387.6 167.18C387.6 154.99 415.09 145.09 448.94 145.09C482.8 145.09 510.29 154.99 510.29 167.18Z" id="b1ccW4fltQ"></path><clipPath id="clipe3nJevrDej"><use xlink:href="#b1ccW4fltQ" opacity="1"></use></clipPath><path d="M470.44 167.18C470.44 171.45 460.81 174.92 448.94 174.92C437.08 174.92 427.44 171.45 427.44 167.18C427.44 162.9 437.08 159.44 448.94 159.44C460.81 159.44 470.44 162.9 470.44 167.18Z" id="d1enXKpO8O"></path><path d="M297.87 314.36L297.71 315.26L297.46 316.15L297.11 317.03L296.67 317.9L296.13 318.76L295.51 319.6L294.79 320.43L293.98 321.25L293.09 322.05L292.12 322.83L291.07 323.6L289.93 324.35L288.72 325.08L287.44 325.8L286.08 326.49L284.64 327.17L283.14 327.82L281.58 328.46L279.94 329.07L278.25 329.65L276.49 330.22L274.67 330.76L272.79 331.27L270.86 331.76L268.88 332.23L266.84 332.66L264.76 333.07L262.62 333.45L260.44 333.8L258.22 334.12L255.96 334.41L253.65 334.67L251.31 334.89L248.93 335.09L246.52 335.25L244.08 335.37L241.61 335.46L239.1 335.52L236.58 335.54L234.05 335.52L231.55 335.46L229.08 335.37L226.63 335.25L224.22 335.09L221.84 334.89L219.5 334.67L217.2 334.41L214.93 334.12L212.71 333.8L210.53 333.45L208.4 333.07L206.31 332.66L204.28 332.23L202.29 331.76L200.36 331.27L198.48 330.76L196.67 330.22L194.91 329.65L193.21 329.07L191.58 328.46L190.01 327.82L188.51 327.17L187.08 326.49L185.72 325.8L184.43 325.08L183.22 324.35L182.09 323.6L181.03 322.83L180.06 322.05L179.17 321.25L178.37 320.43L177.65 319.6L177.02 318.76L176.48 317.9L176.04 317.03L175.69 316.15L175.44 315.26L175.29 314.36L175.26 313.81L175.24 313.81L175.24 217.06L297.92 217.06L297.92 313.81L297.9 313.81L297.87 314.36Z" id="aCmlP5Re"></path><linearGradient id="gradientg1J7NSOefz" gradientUnits="userSpaceOnUse" x1="297.92" y1="286.46" x2="175.24" y2="284.36"><stop style="stop-color: #8a8a8a;stop-opacity: 1" offset="0%"></stop><stop style="stop-color: #010000;stop-opacity: 1" offset="100%"></stop></linearGradient><clipPath id="clipb261ni6bd"><use xlink:href="#aCmlP5Re" opacity="1"></use></clipPath><path d="M297.92 217.06C297.92 229.25 270.43 239.15 236.58 239.15C202.72 239.15 175.24 229.25 175.24 217.06C175.24 204.88 202.72 194.98 236.58 194.98C270.43 194.98 297.92 204.88 297.92 217.06Z" id="f2N0KrPvq"></path><clipPath id="clipaaUHLEau9o"><use xlink:href="#f2N0KrPvq" opacity="1"></use></clipPath><path d="M258.08 217.06C258.08 221.33 248.44 224.8 236.58 224.8C224.71 224.8 215.08 221.33 215.08 217.06C215.08 212.79 224.71 209.32 236.58 209.32C248.44 209.32 258.08 212.79 258.08 217.06Z" id="a1tsH2IAo"></path><path d="M434.72 314.36L434.57 315.26L434.32 316.15L433.97 317.03L433.52 317.9L432.99 318.76L432.36 319.6L431.64 320.43L430.84 321.25L429.95 322.05L428.97 322.83L427.92 323.6L426.79 324.35L425.58 325.08L424.29 325.8L422.93 326.49L421.5 327.17L420 327.82L418.43 328.46L416.8 329.07L415.1 329.65L413.34 330.22L411.52 330.76L409.65 331.27L407.72 331.76L405.73 332.23L403.7 332.66L401.61 333.07L399.48 333.45L397.3 333.8L395.08 334.12L392.81 334.41L390.51 334.67L388.16 334.89L385.79 335.09L383.38 335.25L380.93 335.37L378.46 335.46L375.96 335.52L373.43 335.54L370.9 335.52L368.4 335.46L365.93 335.37L363.49 335.25L361.08 335.09L358.7 334.89L356.36 334.67L354.05 334.41L351.79 334.12L349.56 333.8L347.39 333.45L345.25 333.07L343.17 332.66L341.13 332.23L339.15 331.76L337.21 331.27L335.34 330.76L333.52 330.22L331.76 329.65L330.07 329.07L328.43 328.46L326.86 327.82L325.36 327.17L323.93 326.49L322.57 325.8L321.29 325.08L320.08 324.35L318.94 323.6L317.89 322.83L316.91 322.05L316.02 321.25L315.22 320.43L314.5 319.6L313.88 318.76L313.34 317.9L312.89 317.03L312.55 316.15L312.29 315.26L312.14 314.36L312.11 313.81L312.09 313.81L312.09 217.06L434.77 217.06L434.77 313.81L434.75 313.81L434.72 314.36Z" id="aR0EDRPjU"></path><linearGradient id="gradientc3iLxdKBa1" gradientUnits="userSpaceOnUse" x1="434.77" y1="286.46" x2="312.09" y2="284.36"><stop style="stop-color: #8a8a8a;stop-opacity: 1" offset="0%"></stop><stop style="stop-color: #010000;stop-opacity: 1" offset="100%"></stop></linearGradient><clipPath id="clipe47iML3cY"><use xlink:href="#aR0EDRPjU" opacity="1"></use></clipPath><path d="M434.77 217.06C434.77 229.25 407.29 239.15 373.43 239.15C339.58 239.15 312.09 229.25 312.09 217.06C312.09 204.88 339.58 194.98 373.43 194.98C407.29 194.98 434.77 204.88 434.77 217.06Z" id="hsLik9eYr"></path><clipPath id="clipc1hR4wdGis"><use xlink:href="#hsLik9eYr" opacity="1"></use></clipPath><path d="M394.93 217.06C394.93 221.33 385.3 224.8 373.43 224.8C361.57 224.8 351.93 221.33 351.93 217.06C351.93 212.79 361.57 209.32 373.43 209.32C385.3 209.32 394.93 212.79 394.93 217.06Z" id="b2ofDeScrD"></path></defs><g><g><use xlink:href="#fcXXAlb2J" opacity="1" fill="url(#gradienta1Pd1NU32p)"></use><g clip-path="url(#clipfB8kmZZrx)"><use xlink:href="#fcXXAlb2J" opacity="1" fill-opacity="0" stroke="#000000" stroke-width="10" stroke-opacity="1"></use></g></g><g><use xlink:href="#astivK7l0" opacity="1" fill="#fcfcfc" fill-opacity="1"></use><g clip-path="url(#clipbqMrixnv1)"><use xlink:href="#astivK7l0" opacity="1" fill-opacity="0" stroke="#000000" stroke-width="10" stroke-opacity="1"></use></g></g><g><use xlink:href="#a19Zs7UJtZ" opacity="1" fill="#da1727" fill-opacity="1"></use></g><g><use xlink:href="#avTCyUIHa" opacity="1" fill="url(#gradienta2NgyAbYr)"></use><g clip-path="url(#clipd4skr3USW2)"><use xlink:href="#avTCyUIHa" opacity="1" fill-opacity="0" stroke="#000000" stroke-width="10" stroke-opacity="1"></use></g></g><g><use xlink:href="#e1kRdh3zCV" opacity="1" fill="#fcfcfc" fill-opacity="1"></use><g clip-path="url(#clipc8BkXrtxh)"><use xlink:href="#e1kRdh3zCV" opacity="1" fill-opacity="0" stroke="#000000" stroke-width="10" stroke-opacity="1"></use></g></g><g><use xlink:href="#e15Uq2w29" opacity="1" fill="#da1727" fill-opacity="1"></use></g><g><use xlink:href="#a7piuseeLm" opacity="1" fill="url(#gradienta1ider2gyX)"></use><g clip-path="url(#clipeliFTdFNs)"><use xlink:href="#a7piuseeLm" opacity="1" fill-opacity="0" stroke="#000000" stroke-width="8" stroke-opacity="1"></use></g></g><g><use xlink:href="#b1ccW4fltQ" opacity="1" fill="#fcfcfc" fill-opacity="1"></use><g clip-path="url(#clipe3nJevrDej)"><use xlink:href="#b1ccW4fltQ" opacity="1" fill-opacity="0" stroke="#000000" stroke-width="10" stroke-opacity="1"></use></g></g><g><use xlink:href="#d1enXKpO8O" opacity="1" fill="#da1727" fill-opacity="1"></use></g><g><use xlink:href="#aCmlP5Re" opacity="1" fill="url(#gradientg1J7NSOefz)"></use><g clip-path="url(#clipb261ni6bd)"><use xlink:href="#aCmlP5Re" opacity="1" fill-opacity="0" stroke="#000000" stroke-width="10" stroke-opacity="1"></use></g></g><g><use xlink:href="#f2N0KrPvq" opacity="1" fill="#fcfcfc" fill-opacity="1"></use><g clip-path="url(#clipaaUHLEau9o)"><use xlink:href="#f2N0KrPvq" opacity="1" fill-opacity="0" stroke="#000000" stroke-width="10" stroke-opacity="1"></use></g></g><g><use xlink:href="#a1tsH2IAo" opacity="1" fill="#da1727" fill-opacity="1"></use></g><g><use xlink:href="#aR0EDRPjU" opacity="1" fill="url(#gradientc3iLxdKBa1)"></use><g clip-path="url(#clipe47iML3cY)"><use xlink:href="#aR0EDRPjU" opacity="1" fill-opacity="0" stroke="#000000" stroke-width="10" stroke-opacity="1"></use></g></g><g><use xlink:href="#hsLik9eYr" opacity="1" fill="#fcfcfc" fill-opacity="1"></use><g clip-path="url(#clipc1hR4wdGis)"><use xlink:href="#hsLik9eYr" opacity="1" fill-opacity="0" stroke="#000000" stroke-width="10" stroke-opacity="1"></use></g></g><g><use xlink:href="#b2ofDeScrD" opacity="1" fill="#da1727" fill-opacity="1"></use></g></g></svg>