<?xml version="1.0" encoding="UTF-8" standalone="no"?>
<!DOCTYPE svg PUBLIC "-//W3C//DTD SVG 1.1//EN" "http://www.w3.org/Graphics/SVG/1.1/DTD/svg11.dtd">
<svg version="1.1" xmlns="http://www.w3.org/2000/svg" xmlns:xlink="http://www.w3.org/1999/xlink" preserveAspectRatio="xMidYMid meet" viewBox="167.27941176470532 172.0005638438084 344.30034863882497 224.46097461773022" width="340.3" height="218.46"><defs><path d="M474.95 250C480.29 250 484.62 254.33 484.62 259.66C484.62 285.73 484.62 354.27 484.62 380.34C484.62 385.67 480.29 390 474.95 390C419.35 390 262.19 390 206.59 390C201.25 390 196.92 385.67 196.92 380.34C196.92 354.27 196.92 285.73 196.92 259.66C196.92 254.33 201.25 250 206.59 250C262.19 250 419.35 250 474.95 250Z" id="e10hZ6ykev"></path><clipPath id="clipa12WBaTNP"><use xlink:href="#e10hZ6ykev" opacity="1"></use></clipPath><path d="M169.23 258.15C174.81 274.69 164.81 288.92 213.08 282.77C261.35 276.61 260.38 264.69 326.15 265.85C391.92 267 443.08 276.61 468.46 278.92C485.38 280.46 498.72 268.67 508.46 243.54C510.38 227.77 488.85 213.15 443.85 199.69C376.35 179.5 373.85 172.58 298.46 182C248.21 188.28 212.31 199.82 190.77 216.61C172.69 233.28 165.51 247.13 169.23 258.15Z" id="e1M30CE8ZP"></path><clipPath id="clipb33c99PSvm"><use xlink:href="#e1M30CE8ZP" opacity="1"></use></clipPath><path d="M359.79 175.29L362.76 175.51L365.67 175.78L368.52 176.12L371.33 176.51L374.11 176.95L376.88 177.46L379.64 178.02L382.42 178.64L385.22 179.32L388.06 180.05L390.95 180.83L391.54 181L391.54 393.46L299.23 393.46L299.23 179.19L303.98 178.59L309.24 177.95L314.25 177.38L319.03 176.87L323.58 176.42L327.93 176.04L332.08 175.71L336.05 175.45L339.85 175.25L343.49 175.1L346.99 175.02L350.35 175L353.6 175.04L356.74 175.14L356.74 175.14L359.79 175.29Z" id="dcK7G1lXD"></path></defs><g><g><use xlink:href="#e10hZ6ykev" opacity="1" fill="#fefce3" fill-opacity="1"></use><g clip-path="url(#clipa12WBaTNP)"><use xlink:href="#e10hZ6ykev" opacity="1" fill-opacity="0" stroke="#878787" stroke-width="14" stroke-opacity="1"></use></g></g><g><use xlink:href="#e1M30CE8ZP" opacity="1" fill="#cbccff" fill-opacity="1"></use><g clip-path="url(#clipb33c99PSvm)"><use xlink:href="#e1M30CE8ZP" opacity="1" fill-opacity="0" stroke="#6e6e67" stroke-width="12" stroke-opacity="1"></use></g></g><g><use xlink:href="#dcK7G1lXD" opacity="1" fill="#0f6505" fill-opacity="1"></use></g></g></svg>