<?xml version="1.0" encoding="UTF-8" standalone="no"?>
<!DOCTYPE svg PUBLIC "-//W3C//DTD SVG 1.1//EN" "http://www.w3.org/Graphics/SVG/1.1/DTD/svg11.dtd">
<svg version="1.1" xmlns="http://www.w3.org/2000/svg" xmlns:xlink="http://www.w3.org/1999/xlink" preserveAspectRatio="xMidYMid meet" viewBox="146.63440860215056 151.53400074055497 378.17204301075276 262.13266592611177" width="372.17" height="258.13"><defs><path d="M521.81 351.81C521.81 384.29 438.42 410.67 335.72 410.67C233.02 410.67 149.63 384.29 149.63 351.81C149.63 319.32 233.02 292.95 335.72 292.95C438.42 292.95 521.81 319.32 521.81 351.81Z" id="a4kg7wHKqP"></path><linearGradient id="gradientb6RG7K1VzH" gradientUnits="userSpaceOnUse" x1="210.69" y1="285.63" x2="449.78" y2="404.82"><stop style="stop-color: #159896;stop-opacity: 1" offset="0%"></stop><stop style="stop-color: #0ea4a2;stop-opacity: 1" offset="37.84682757237411%"></stop><stop style="stop-color: #0ca5a3;stop-opacity: 1" offset="100%"></stop></linearGradient><path d="M445.76 345.23C445.76 359.15 399.08 370.45 341.57 370.45C284.06 370.45 237.38 359.15 237.38 345.23C237.38 331.3 284.06 320 341.57 320C399.08 320 445.76 331.3 445.76 345.23Z" id="a1CYnBlmaX"></path><linearGradient id="gradientcpmxnhIW" gradientUnits="userSpaceOnUse" x1="275.03" y1="311.23" x2="420.54" y2="388.73"><stop style="stop-color: #ffffff;stop-opacity: 1" offset="0%"></stop><stop style="stop-color: #049593;stop-opacity: 1" offset="100%"></stop></linearGradient><path d="M265.16 377.76C317.81 387.82 361.31 385.62 415.78 375.57C470.26 365.52 482.69 393.3 483.05 337.55C483.42 281.8 441.19 153.47 417.25 152.56C393.3 151.65 404.09 175.96 384.34 175.96C364.6 175.96 359.85 153.11 338.28 152.56C316.71 152.01 317.99 172.67 298.06 173.76C278.14 174.86 288.38 159.69 258.58 156.95C228.78 154.2 203.56 280.15 205.2 335.35C206.85 390.56 212.52 367.71 265.16 377.76Z" id="h5tUOcUQ1k"></path><clipPath id="clipbthBczqqQ"><use xlink:href="#h5tUOcUQ1k" opacity="1"></use></clipPath><path d="M289.23 211.19C287.47 241.14 277.17 297.83 267.36 322.27C257.55 346.7 248.24 338.88 249.99 308.93C251.74 278.99 258.52 239.59 268.33 215.16C278.14 190.72 290.98 181.25 289.23 211.19Z" id="eCw7U0PvH"></path><path d="M332.51 216.1C327.22 243.05 326.65 295.2 330.43 317.7C334.2 340.19 349.29 335.91 354.58 308.96C359.87 282 355.35 232.38 351.58 209.88C347.8 187.39 337.8 189.14 332.51 216.1Z" id="a20KVIpjDc"></path><path d="M420.53 210.35C431.75 238.17 444.89 284.51 445.89 310.98C446.9 337.46 435.78 344.06 424.55 316.25C413.33 288.43 403.35 240.32 402.34 213.85C401.33 187.37 409.3 182.53 420.53 210.35Z" id="b1HU9yXjbh"></path></defs><g><g><use xlink:href="#a4kg7wHKqP" opacity="1" fill="url(#gradientb6RG7K1VzH)"></use><g><use xlink:href="#a4kg7wHKqP" opacity="1" fill-opacity="0" stroke="#054b4b" stroke-width="6" stroke-opacity="1"></use></g></g><g><use xlink:href="#a1CYnBlmaX" opacity="1" fill="url(#gradientcpmxnhIW)"></use></g><g><use xlink:href="#h5tUOcUQ1k" opacity="1" fill="#deb2e2" fill-opacity="0.93"></use><g clip-path="url(#clipbthBczqqQ)"><use xlink:href="#h5tUOcUQ1k" opacity="1" fill-opacity="0" stroke="#755877" stroke-width="14" stroke-opacity="1"></use></g></g><g><use xlink:href="#eCw7U0PvH" opacity="1" fill="#b84cc0" fill-opacity="0.39"></use><g><use xlink:href="#eCw7U0PvH" opacity="1" fill-opacity="0" stroke="#000000" stroke-width="3" stroke-opacity="1"></use></g></g><g><use xlink:href="#a20KVIpjDc" opacity="1" fill="#d28ed6" fill-opacity="1"></use><g><use xlink:href="#a20KVIpjDc" opacity="1" fill-opacity="0" stroke="#000000" stroke-width="3" stroke-opacity="1"></use></g></g><g><use xlink:href="#b1HU9yXjbh" opacity="1" fill="#d28ed6" fill-opacity="1"></use><g><use xlink:href="#b1HU9yXjbh" opacity="1" fill-opacity="0" stroke="#000000" stroke-width="3" stroke-opacity="1"></use></g></g></g></svg>