<?xml version="1.0" encoding="UTF-8" standalone="no"?>
<!DOCTYPE svg PUBLIC "-//W3C//DTD SVG 1.1//EN" "http://www.w3.org/Graphics/SVG/1.1/DTD/svg11.dtd">
<svg version="1.1" xmlns="http://www.w3.org/2000/svg" xmlns:xlink="http://www.w3.org/1999/xlink" preserveAspectRatio="xMidYMid meet" viewBox="90.4845360824742 107.16405911745085 503.7184782990279 301.23711340206194" width="499.72" height="297.24"><defs><path d="M397.65 108.16C403.17 108.16 407.65 112.64 407.65 118.16C407.65 145.89 407.65 219.06 407.65 246.78C407.65 252.31 403.17 256.78 397.65 256.78C336.42 256.78 162.72 256.78 101.48 256.78C95.96 256.78 91.48 252.31 91.48 246.78C91.48 219.06 91.48 145.89 91.48 118.16C91.48 112.64 95.96 108.16 101.48 108.16C162.72 108.16 336.42 108.16 397.65 108.16Z" id="k2v9trI8GJ"></path><clipPath id="clipctJQsHlME"><use xlink:href="#k2v9trI8GJ" opacity="1"></use></clipPath><path d="M482.56 182.47C488.08 182.47 492.56 186.95 492.56 192.47C492.56 220.2 492.56 293.37 492.56 321.09C492.56 326.61 488.08 331.09 482.56 331.09C421.33 331.09 247.63 331.09 186.4 331.09C180.87 331.09 176.4 326.61 176.4 321.09C176.4 293.37 176.4 220.2 176.4 192.47C176.4 186.95 180.87 182.47 186.4 182.47C247.63 182.47 421.33 182.47 482.56 182.47Z" id="e1ypigaZDz"></path><clipPath id="clipb2iemCV1uM"><use xlink:href="#e1ypigaZDz" opacity="1"></use></clipPath><path d="M581.2 256.78C586.73 256.78 591.2 261.26 591.2 266.78C591.2 294.51 591.2 367.68 591.2 395.4C591.2 400.92 586.73 405.4 581.2 405.4C519.97 405.4 346.27 405.4 285.04 405.4C279.52 405.4 275.04 400.92 275.04 395.4C275.04 367.68 275.04 294.51 275.04 266.78C275.04 261.26 279.52 256.78 285.04 256.78C346.27 256.78 519.97 256.78 581.2 256.78Z" id="a1hYL8z5e0"></path><clipPath id="clipf5OkPx6Bn"><use xlink:href="#a1hYL8z5e0" opacity="1"></use></clipPath></defs><g><g><use xlink:href="#k2v9trI8GJ" opacity="1" fill="#8a1a9c" fill-opacity="1"></use><g clip-path="url(#clipctJQsHlME)"><use xlink:href="#k2v9trI8GJ" opacity="1" fill-opacity="0" stroke="#22d3e4" stroke-width="16" stroke-opacity="1"></use></g></g><g><use xlink:href="#e1ypigaZDz" opacity="1" fill="#b41130" fill-opacity="1"></use><g clip-path="url(#clipb2iemCV1uM)"><use xlink:href="#e1ypigaZDz" opacity="1" fill-opacity="0" stroke="#22d3e4" stroke-width="16" stroke-opacity="1"></use></g></g><g><use xlink:href="#a1hYL8z5e0" opacity="1" fill="#2c720b" fill-opacity="1"></use><g clip-path="url(#clipf5OkPx6Bn)"><use xlink:href="#a1hYL8z5e0" opacity="1" fill-opacity="0" stroke="#22d3e4" stroke-width="16" stroke-opacity="1"></use></g></g></g></svg>