<?xml version="1.0" encoding="UTF-8" standalone="no"?>
<!DOCTYPE svg PUBLIC "-//W3C//DTD SVG 1.1//EN" "http://www.w3.org/Graphics/SVG/1.1/DTD/svg11.dtd">
<svg version="1.1" xmlns="http://www.w3.org/2000/svg" xmlns:xlink="http://www.w3.org/1999/xlink" preserveAspectRatio="xMidYMid meet" viewBox="40.23432321251053 174.0374340116732 410.3999331343564 258.01541553907896" width="406.4" height="254.02"><defs><path d="M447.63 238.41C383.67 264.49 234.6 257.9 193.46 275.34C152.31 292.78 103.54 320.02 96.33 357.02C89.11 394.03 105.61 419.51 143.49 427.37C181.37 435.24 214.96 414.34 247.85 388.48C317.52 326.57 378.27 212.56 428.21 175.04C404.08 211.49 410.33 237.8 447.63 238.41Z" id="e80VFq8c6m"></path><linearGradient id="gradientb3D8bysssA" gradientUnits="userSpaceOnUse" x1="447.12" y1="202.99" x2="99.44" y2="398.78"><stop style="stop-color: #ffb321;stop-opacity: 1" offset="0%"></stop><stop style="stop-color: #87682c;stop-opacity: 1" offset="100%"></stop></linearGradient><clipPath id="clipfMLavtruA"><use xlink:href="#e80VFq8c6m" opacity="1"></use></clipPath><path d="M41.23 238.41C105.2 264.49 254.27 257.9 295.41 275.34C336.56 292.78 385.32 320.02 392.54 357.02C399.75 394.03 383.26 419.51 345.38 427.37C307.5 435.24 273.9 414.34 241.02 388.48C171.34 326.57 110.6 212.56 60.66 175.04C84.78 211.49 78.54 237.8 41.23 238.41Z" id="b4WlXa5ZO"></path><linearGradient id="gradientaj0QbNmEy" gradientUnits="userSpaceOnUse" x1="232.39" y1="307.96" x2="389.43" y2="398.78"><stop style="stop-color: #ffb321;stop-opacity: 1" offset="0%"></stop><stop style="stop-color: #87682c;stop-opacity: 1" offset="100%"></stop></linearGradient><clipPath id="clipd1btS0jRA"><use xlink:href="#b4WlXa5ZO" opacity="1"></use></clipPath></defs><g><g><use xlink:href="#e80VFq8c6m" opacity="1" fill="url(#gradientb3D8bysssA)"></use><g clip-path="url(#clipfMLavtruA)"><use xlink:href="#e80VFq8c6m" opacity="1" fill-opacity="0" stroke="#352f23" stroke-width="16" stroke-opacity="1"></use></g></g><g><use xlink:href="#b4WlXa5ZO" opacity="1" fill="url(#gradientaj0QbNmEy)"></use><g clip-path="url(#clipd1btS0jRA)"><use xlink:href="#b4WlXa5ZO" opacity="1" fill-opacity="0" stroke="#392c12" stroke-width="16" stroke-opacity="1"></use></g></g></g></svg>