<?xml version="1.0" encoding="UTF-8" standalone="no"?>
<!DOCTYPE svg PUBLIC "-//W3C//DTD SVG 1.1//EN" "http://www.w3.org/Graphics/SVG/1.1/DTD/svg11.dtd">
<svg version="1.1" xmlns="http://www.w3.org/2000/svg" xmlns:xlink="http://www.w3.org/1999/xlink" preserveAspectRatio="xMidYMid meet" viewBox="147.27941176470588 152.00056384380838 344.30034863882497 224.46097461773024" width="340.3" height="218.46"><defs><path d="M454.95 229.62C460.29 229.62 464.62 233.94 464.62 239.28C464.62 265.35 464.62 333.88 464.62 359.95C464.62 365.29 460.29 369.62 454.95 369.62C399.35 369.62 242.19 369.62 186.59 369.62C181.25 369.62 176.92 365.29 176.92 359.95C176.92 333.88 176.92 265.35 176.92 239.28C176.92 233.94 181.25 229.62 186.59 229.62C242.19 229.62 399.35 229.62 454.95 229.62Z" id="b4fjd4iEV3"></path><clipPath id="clipciztuQoX2"><use xlink:href="#b4fjd4iEV3" opacity="1"></use></clipPath><path d="M149.23 238.38C154.81 254.92 144.81 269.15 193.08 263C241.35 256.84 240.38 244.92 306.15 246.07C371.92 247.23 423.08 256.84 448.46 259.15C465.38 260.69 478.72 248.89 488.46 223.77C490.38 208 468.85 193.38 423.85 179.92C356.35 159.73 353.85 152.8 278.46 162.23C228.21 168.51 192.31 180.05 170.77 196.84C152.69 213.51 145.51 227.36 149.23 238.38Z" id="b3jKUuL9Jz"></path><clipPath id="clipd1HfagT9YU"><use xlink:href="#b3jKUuL9Jz" opacity="1"></use></clipPath><path d="M336.74 155.14L339.79 155.29L342.76 155.51L345.67 155.78L348.52 156.12L351.33 156.51L354.11 156.95L356.88 157.46L359.64 158.02L362.42 158.64L365.22 159.32L368.06 160.05L370.95 160.83L371.54 161L371.54 373.46L279.23 373.46L279.23 159.19L283.98 158.59L289.24 157.95L294.25 157.38L299.03 156.87L303.58 156.42L307.93 156.04L312.08 155.71L316.05 155.45L319.85 155.25L323.49 155.1L326.99 155.02L330.35 155L333.6 155.04L336.74 155.14Z" id="h4ELWfIfc"></path></defs><g><g><use xlink:href="#b4fjd4iEV3" opacity="1" fill="#fefce3" fill-opacity="1"></use><g clip-path="url(#clipciztuQoX2)"><use xlink:href="#b4fjd4iEV3" opacity="1" fill-opacity="0" stroke="#878787" stroke-width="14" stroke-opacity="1"></use></g></g><g><use xlink:href="#b3jKUuL9Jz" opacity="1" fill="#e4e016" fill-opacity="1"></use><g clip-path="url(#clipd1HfagT9YU)"><use xlink:href="#b3jKUuL9Jz" opacity="1" fill-opacity="0" stroke="#6e6e67" stroke-width="12" stroke-opacity="1"></use></g></g><g><use xlink:href="#h4ELWfIfc" opacity="1" fill="#0f6505" fill-opacity="1"></use></g></g></svg>