<?xml version="1.0" encoding="UTF-8" standalone="no"?>
<!DOCTYPE svg PUBLIC "-//W3C//DTD SVG 1.1//EN" "http://www.w3.org/Graphics/SVG/1.1/DTD/svg11.dtd">
<svg version="1.1" xmlns="http://www.w3.org/2000/svg" xmlns:xlink="http://www.w3.org/1999/xlink" preserveAspectRatio="xMidYMid meet" viewBox="209.909090909091 177.74125874125878 145.95804195804192 145.95804195804192" width="141.96" height="141.96"><defs><path d="M352.87 249.72C352.87 288.89 321.06 320.7 281.89 320.7C242.71 320.7 210.91 288.89 210.91 249.72C210.91 210.55 242.71 178.74 281.89 178.74C321.06 178.74 352.87 210.55 352.87 249.72Z" id="l1WQ8NrPXw"></path><radialGradient id="gradiente4zz0gy1zn" gradientUnits="userSpaceOnUse" cx="310.56" cy="232.59" dx="310.56" dy="374.55" r="141.96"><stop style="stop-color: #98f35f;stop-opacity: 1" offset="0%"></stop><stop style="stop-color: #1da5a8;stop-opacity: 1" offset="100%"></stop></radialGradient><clipPath id="clipa2Z2d3BMBf"><use xlink:href="#l1WQ8NrPXw" opacity="1"></use></clipPath><path d="M330.49 241.57C313.79 248.17 300.72 250.89 291.28 249.72C277.12 247.97 264.74 243.23 249.37 241.57C239.12 240.46 233.76 241.86 233.29 245.77" id="f3jsFSBqR"></path><clipPath id="clipa4c4Fgisw9"><use xlink:href="#f3jsFSBqR" opacity="1"></use></clipPath><path d="M326.5 263.46C309.8 270.06 296.73 272.77 287.29 271.61C273.13 269.86 260.76 265.12 245.38 263.46C235.14 262.35 229.77 263.75 229.3 267.65" id="bgpi3h74r"></path><clipPath id="clipdppEMIxA6"><use xlink:href="#bgpi3h74r" opacity="1"></use></clipPath><path d="M330.49 221.01C313.79 227.61 300.72 230.33 291.28 229.16C277.12 227.41 264.74 222.67 249.37 221.01C239.12 219.9 233.76 221.3 233.29 225.21" id="b12eOQdB7J"></path><clipPath id="clipalgMvmToy"><use xlink:href="#b12eOQdB7J" opacity="1"></use></clipPath></defs><g><g><use xlink:href="#l1WQ8NrPXw" opacity="1" fill="url(#gradiente4zz0gy1zn)"></use><g clip-path="url(#clipa2Z2d3BMBf)"><use xlink:href="#l1WQ8NrPXw" opacity="1" fill-opacity="0" stroke="#000000" stroke-width="16" stroke-opacity="1"></use></g></g><g><g clip-path="url(#clipa4c4Fgisw9)"><use xlink:href="#f3jsFSBqR" opacity="1" fill-opacity="0" stroke="#2e7b5c" stroke-width="4" stroke-opacity="1"></use></g></g><g><g clip-path="url(#clipdppEMIxA6)"><use xlink:href="#bgpi3h74r" opacity="1" fill-opacity="0" stroke="#2e7b5c" stroke-width="4" stroke-opacity="1"></use></g></g><g><g clip-path="url(#clipalgMvmToy)"><use xlink:href="#b12eOQdB7J" opacity="1" fill-opacity="0" stroke="#2e7b5c" stroke-width="4" stroke-opacity="1"></use></g></g></g></svg>